<svg width="80" height="38" viewBox="0 0 80 38" fill="none" xmlns="http://www.w3.org/2000/svg">
<path d="M3.89236 32.5047C3.35806 32.5047 2.90667 32.3942 2.53818 32.1731C2.04073 31.8967 1.792 31.4638 1.792 30.8742C1.792 30.3583 1.95782 29.8977 2.28945 29.4924C2.65794 29.0686 3.0817 28.8567 3.56073 28.8567C3.91079 28.8567 4.21479 28.9857 4.47273 29.2436C4.69382 29.5016 4.80436 29.7595 4.80436 30.0175C4.80436 30.4781 4.62933 30.8558 4.27927 31.1505C3.98448 31.4269 3.65285 31.5651 3.28436 31.5651C2.9343 31.5651 2.6303 31.4361 2.37236 31.1782C2.48291 31.5835 2.86061 31.7862 3.50545 31.7862C4.48194 31.7862 5.64267 31.1321 6.98764 29.824C7.48509 29.345 8.01939 28.7646 8.59055 28.0829C9.14327 27.4196 9.72364 26.6458 10.3316 25.7615C10.737 25.1719 11.1331 24.5915 11.52 24.0204C11.9069 23.4308 12.303 22.8412 12.7084 22.2516C11.3634 20.1881 10.6909 18.2444 10.6909 16.4204C10.6909 15.3702 10.9304 14.5227 11.4095 13.8778C11.9069 13.233 12.5425 12.9105 13.3164 12.9105C14.7535 12.9105 16.255 13.9055 17.8211 15.8953C19.5898 14.0713 21.3954 12.5236 23.2378 11.2524C25.7067 9.53891 27.7425 8.68218 29.3455 8.68218C29.9903 8.68218 30.3127 8.82036 30.3127 9.09673C30.3127 9.17042 30.2851 9.26254 30.2298 9.37309C26.0844 16.7981 23.7629 21.8371 23.2655 24.4902C23.2286 24.7481 23.1918 24.9876 23.1549 25.2087C23.1365 25.4298 23.1273 25.6325 23.1273 25.8167C23.1273 26.9775 23.5971 27.5578 24.5367 27.5578C25.4948 27.5578 26.8398 25.7522 28.5716 22.1411C28.6453 21.9568 28.7467 21.8463 28.8756 21.8095H28.9033C28.977 21.8095 29.0138 21.8739 29.0138 22.0029C29.0138 22.1135 28.9678 22.2608 28.8756 22.4451C28.3598 23.4768 27.9452 24.2967 27.632 24.9047C27.3372 25.5127 27.1345 25.8996 27.024 26.0655C26.5081 26.8761 25.9922 27.4749 25.4764 27.8618C24.9605 28.2487 24.4538 28.4422 23.9564 28.4422C23.3299 28.4422 22.7312 28.2027 22.16 27.7236C21.4415 27.0972 21.0453 26.2221 20.9716 25.0982C20.4742 22.0766 19.3779 19.4972 17.6829 17.36C17.0933 17.9864 16.4669 18.7142 15.8036 19.5433C15.1588 20.3724 14.4679 21.3028 13.7309 22.3345C14.5784 23.6795 15.5457 24.9232 16.6327 26.0655C17.7382 27.2078 18.9634 28.2395 20.3084 29.1607C20.4373 29.2344 20.5018 29.3265 20.5018 29.4371C20.5018 29.5845 20.4465 29.6582 20.336 29.6582C20.2807 29.6582 20.1978 29.6305 20.0873 29.5753C19.5714 29.2621 19.0371 28.8844 18.4844 28.4422C17.9316 28.0184 17.3513 27.521 16.7433 26.9498C16.0616 26.3234 15.4259 25.6878 14.8364 25.0429C14.2652 24.3796 13.7309 23.7072 13.2335 23.0255C11.9806 24.7942 10.9857 26.1852 10.2487 27.1985C9.53018 28.2119 9.06958 28.8475 8.86691 29.1055C7.35612 30.9847 6.05721 32.0625 4.97018 32.3389C4.62012 32.4495 4.26085 32.5047 3.89236 32.5047ZM21.1651 23.136C21.2756 22.657 21.4322 22.1595 21.6349 21.6436C21.856 21.1093 22.1232 20.5658 22.4364 20.0131C24.0208 17.1942 25.6145 14.6148 27.2175 12.2749C27.4017 12.017 27.4938 11.7867 27.4938 11.584C27.4938 11.3445 27.3188 11.2247 26.9687 11.2247C25.9001 11.2247 24.3801 11.9064 22.4087 13.2698C21.6165 13.8225 20.8887 14.3845 20.2255 14.9556C19.5622 15.5084 18.945 16.0703 18.3738 16.6415C19.6267 18.5207 20.5571 20.6856 21.1651 23.136ZM13.2335 21.5055C13.952 20.529 14.6245 19.6354 15.2509 18.8247C15.8958 18.0141 16.5038 17.2955 17.0749 16.6691C15.9142 15.4347 14.8824 14.8175 13.9796 14.8175C13.4269 14.8175 12.9939 15.0662 12.6807 15.5636C12.3491 16.0795 12.1833 16.7428 12.1833 17.5535C12.1833 18.8247 12.5333 20.1421 13.2335 21.5055ZM30.8225 28.1935C30.454 28.1935 30.1684 28.0921 29.9658 27.8895C29.7815 27.6868 29.6894 27.4012 29.6894 27.0327V15.5084C29.6894 15.1399 29.7815 14.8635 29.9658 14.6793C30.15 14.4766 30.4172 14.3753 30.7672 14.3753C31.1173 14.3753 31.3844 14.4766 31.5687 14.6793C31.7713 14.8635 31.8727 15.1399 31.8727 15.5084V17.7469H31.5963C31.8911 16.6599 32.453 15.8216 33.2821 15.232C34.1112 14.6424 35.1338 14.3292 36.3498 14.2924C36.6261 14.2739 36.8472 14.3384 37.013 14.4858C37.1789 14.6148 37.271 14.8451 37.2894 15.1767C37.3078 15.4899 37.2341 15.7387 37.0683 15.9229C36.9025 16.1072 36.6445 16.2177 36.2945 16.2545L35.8523 16.3098C34.5995 16.4204 33.6322 16.8257 32.9505 17.5258C32.2872 18.2075 31.9556 19.1472 31.9556 20.3447V27.0327C31.9556 27.4012 31.8542 27.6868 31.6516 27.8895C31.4673 28.0921 31.191 28.1935 30.8225 28.1935ZM46.5411 28.2487C45.4909 28.2487 44.6066 28.0645 43.888 27.696C43.1879 27.3091 42.6628 26.7564 42.3127 26.0378C41.9627 25.3008 41.7876 24.4073 41.7876 23.3571V16.3098H39.936C39.6228 16.3098 39.3833 16.2361 39.2175 16.0887C39.0516 15.9229 38.9687 15.7018 38.9687 15.4255C38.9687 15.1491 39.0516 14.9372 39.2175 14.7898C39.3833 14.6424 39.6228 14.5687 39.936 14.5687H41.7876V11.3905C41.7876 11.0221 41.889 10.7457 42.0916 10.5615C42.2943 10.3588 42.5707 10.2575 42.9207 10.2575C43.2708 10.2575 43.538 10.3588 43.7222 10.5615C43.9249 10.7457 44.0262 11.0221 44.0262 11.3905V14.5687H47.5084C47.8216 14.5687 48.0611 14.6424 48.2269 14.7898C48.3927 14.9372 48.4756 15.1491 48.4756 15.4255C48.4756 15.7018 48.3927 15.9229 48.2269 16.0887C48.0611 16.2361 47.8216 16.3098 47.5084 16.3098H44.0262V23.136C44.0262 24.1862 44.2473 24.9876 44.6895 25.5404C45.1316 26.0747 45.8502 26.3418 46.8451 26.3418C47.1952 26.3418 47.49 26.305 47.7295 26.2313C47.9874 26.1576 48.1993 26.1207 48.3651 26.1207C48.5309 26.1023 48.6691 26.1576 48.7796 26.2865C48.8902 26.4155 48.9455 26.6366 48.9455 26.9498C48.9455 27.1709 48.8994 27.3736 48.8073 27.5578C48.7336 27.7421 48.5954 27.871 48.3927 27.9447C48.1716 28.0184 47.8769 28.0829 47.5084 28.1382C47.1583 28.2119 46.8359 28.2487 46.5411 28.2487ZM52.9104 28.1382C52.5419 28.1382 52.2656 28.0368 52.0813 27.8342C51.8971 27.6131 51.805 27.3091 51.805 26.9222V15.6189C51.805 15.232 51.8971 14.9372 52.0813 14.7345C52.2656 14.5319 52.5419 14.4305 52.9104 14.4305C53.2605 14.4305 53.5368 14.5319 53.7395 14.7345C53.9422 14.9372 54.0435 15.232 54.0435 15.6189V26.9222C54.0435 27.3091 53.9422 27.6131 53.7395 27.8342C53.5553 28.0368 53.2789 28.1382 52.9104 28.1382ZM52.9104 11.3353C52.4498 11.3353 52.0905 11.2155 51.8326 10.976C51.5747 10.7181 51.4457 10.3772 51.4457 9.95345C51.4457 9.51127 51.5747 9.17964 51.8326 8.95854C52.0905 8.71903 52.4498 8.59927 52.9104 8.59927C53.3894 8.59927 53.7487 8.71903 53.9882 8.95854C54.2462 9.17964 54.3751 9.51127 54.3751 9.95345C54.3751 10.3772 54.2462 10.7181 53.9882 10.976C53.7487 11.2155 53.3894 11.3353 52.9104 11.3353ZM64.7504 28.2487C63.4055 28.2487 62.2447 27.9539 61.2683 27.3644C60.2918 26.7748 59.5364 25.9549 59.0021 24.9047C58.4862 23.8361 58.2283 22.6017 58.2283 21.2015C58.2283 20.1328 58.3757 19.1748 58.6704 18.3273C58.9652 17.4798 59.3982 16.7612 59.9694 16.1716C60.5405 15.5636 61.2222 15.103 62.0144 14.7898C62.8251 14.4766 63.7371 14.32 64.7504 14.32C65.4137 14.32 66.1046 14.4213 66.8232 14.624C67.5417 14.8267 68.1958 15.1767 68.7854 15.6742C68.9696 15.8032 69.0894 15.9598 69.1446 16.144C69.1999 16.3282 69.1999 16.5125 69.1446 16.6967C69.0894 16.8625 68.9972 17.0099 68.8683 17.1389C68.7393 17.2495 68.5735 17.3139 68.3708 17.3324C68.1866 17.3508 67.9931 17.2863 67.7904 17.1389C67.3114 16.7704 66.8232 16.5125 66.3257 16.3651C65.8283 16.2177 65.3492 16.144 64.8886 16.144C64.1701 16.144 63.5437 16.2638 63.0094 16.5033C62.4751 16.7244 62.0237 17.0468 61.6552 17.4705C61.2867 17.8943 61.0011 18.4194 60.7984 19.0458C60.6142 19.6722 60.5221 20.4 60.5221 21.2291C60.5221 22.832 60.8998 24.1033 61.6552 25.0429C62.4106 25.9641 63.4884 26.4247 64.8886 26.4247C65.3492 26.4247 65.8191 26.351 66.2981 26.2036C66.7955 26.0562 67.293 25.7983 67.7904 25.4298C67.9931 25.2824 68.1866 25.2179 68.3708 25.2364C68.5551 25.2548 68.7117 25.3285 68.8406 25.4575C68.9696 25.568 69.0525 25.7154 69.0894 25.8996C69.1446 26.0839 69.1446 26.2681 69.0894 26.4524C69.0341 26.6182 68.9143 26.7656 68.7301 26.8945C68.1405 27.3736 67.4957 27.7236 66.7955 27.9447C66.0954 28.1474 65.4137 28.2487 64.7504 28.2487Z" fill="black"/>
</svg>
